<?xml version="1.0" encoding="UTF-8"?>
<svg id="Capa_1" xmlns="http://www.w3.org/2000/svg" version="1.1" xmlns:xlink="http://www.w3.org/1999/xlink" viewBox="0 0 457 457">
  <!-- Generator: Adobe Illustrator 29.4.0, SVG Export Plug-In . SVG Version: 2.1.0 Build 152)  -->
  <defs>
    <linearGradient id="linear-gradient" x1="379.3" y1="219.5" x2="281.4" y2="220" gradientUnits="userSpaceOnUse">
      <stop offset="0" stop-color="#fbd6e1"/>
      <stop offset="1" stop-color="#f59fb8"/>
    </linearGradient>
    <linearGradient id="linear-gradient1" x1="15.7" y1="190.3" x2="95.9" y2="203.8" gradientUnits="userSpaceOnUse">
      <stop offset="0" stop-color="#709b45"/>
      <stop offset="1" stop-color="#59833c"/>
    </linearGradient>
    <linearGradient id="linear-gradient2" x1="415.3" y1="106.3" x2="358.4" y2="174.8" gradientUnits="userSpaceOnUse">
      <stop offset="0" stop-color="#87ac44"/>
      <stop offset="1" stop-color="#6f963f"/>
    </linearGradient>
    <linearGradient id="linear-gradient3" x1="215" y1="353.1" x2="204" y2="425.4" gradientUnits="userSpaceOnUse">
      <stop offset="0" stop-color="#2a4e20"/>
      <stop offset="1" stop-color="#57863b"/>
    </linearGradient>
    <linearGradient id="linear-gradient4" x1="243.1" y1="22.3" x2="266.2" y2="108.3" gradientUnits="userSpaceOnUse">
      <stop offset="0" stop-color="#85ab44"/>
      <stop offset="1" stop-color="#6a923b"/>
    </linearGradient>
    <linearGradient id="linear-gradient5" x1="425.4" y1="271.3" x2="354.2" y2="274.6" gradientUnits="userSpaceOnUse">
      <stop offset="0" stop-color="#649042"/>
      <stop offset="1" stop-color="#487233"/>
    </linearGradient>
    <linearGradient id="linear-gradient6" x1="197.3" y1="102" x2="125.9" y2="177.4" gradientUnits="userSpaceOnUse">
      <stop offset="0" stop-color="#fac8d6"/>
      <stop offset="1" stop-color="#f6a9bf"/>
    </linearGradient>
    <linearGradient id="linear-gradient7" x1="260.8" y1="330.1" x2="272.9" y2="432.5" gradientUnits="userSpaceOnUse">
      <stop offset="0" stop-color="#305724"/>
      <stop offset="1" stop-color="#5b8a3e"/>
    </linearGradient>
    <linearGradient id="linear-gradient8" x1="121.4" y1="290.7" x2="62.3" y2="333.8" gradientUnits="userSpaceOnUse">
      <stop offset="0" stop-color="#487232"/>
      <stop offset="1" stop-color="#679342"/>
    </linearGradient>
    <linearGradient id="linear-gradient9" x1="337.6" y1="268.5" x2="376.5" y2="346.6" gradientUnits="userSpaceOnUse">
      <stop offset="0" stop-color="#3b642b"/>
      <stop offset="1" stop-color="#628e40"/>
    </linearGradient>
  </defs>
  <g id="Generative_Object">
    <g>
      <path d="M7-1.4h445.2l3.2,1.5.6,455.8-2.1,3.8-451.9-1.5L.8,1.2C2-2.2,4.5,0,7-1.4Z" style="fill: #fefdfe;"/>
      <path d="M202.5,238l-3.5,1.5c3.4.5.2,1.2.6,2.4s1.6,0,1.8.6c.2.9-2.2,2.5,1.2,2.9l-1.5,2.1,11.5-.9-23.6,14.7,9.7-6.8c1.9,0-1.4,2.2,0,2.4s7.6-7.6,10.3-6.2c.6,1-17.6,12.7-16.8,16.8,3.2-2.5,6.3-7.2,9.4-9.4s1.6,1.1,2.4.6c2.8-1.8,5.3-5.5,8.8-6.5l-6.2,9.7c.8,2.2,2.5-2,3.2-2.1s1.6,2.3,1.5,2.7-4.3,6-4.7,7.1-1.3,6.1-.9,6.2c4.4-7.7,8.2-17.8,15.3-23l-8.8,24.8,8.3-19.5c1.9,0,.2,2.8.6,2.9s3.7-1.1,4.4.3-1,7.3-.6,9.4c.7-.3,3.1-.2,3.2-.3,1-.9-1.3-15.8.3-18.6,2.2.4,1.9,8,3.2,8.5,2.3.9.4-10.1,4.7-1.2v-7.1c.9-.4,6.3,7.1,4.7-.6h4.7c-.7-5.2,2.2-2.8,2.4-2.9.6-.6,0-1.9.3-2.1.7-.6,1.8,0,2.1-.3,1.7-1.2,2.5-3.9,5.6-4.1s12.9,2.7,13.9,2.9c6.9,2.1,14.4,8.3,22.1,7.1,0,4.6,1.8,5.1,2.9,8.3s2.2,4.4,2.4,5.3c1,4.7-.6,9,0,13.3s3,6.9,3.5,9.7.6,2.7.6,4.1c0,7-3.6,12.1-7.1,17.7s-11.1,16.1-13.9,18.3c-4.6,3.6-8.7,3-11.8,4.7s-9.5,13.9-15,17.1-2.7.9-3.5,1.2-2.1.4-2.9.6h-5.3c-11.9,0-10.5,2.2-19.2,4.1-12.4,2.8-15.7-6.6-20-7.1s-5.8,3.8-8.3,4.1c-5.8.9-8.2-1.8-12.7-4.1s-3.6-3.7-5.6-4.1c-6.4-1.4-11.7,1.1-18.6-4.1s-1-1-1.2-1.2c-.4-.4-2.3-2.8-2.4-2.9-1.5-4.2.3-9.2-1.2-13.3s-6.9-6.4-8.8-9.4c-3-4.6-6.7-15.5-7.1-20.9s-.6-3.4-.6-3.5c.3-6.7,8.5-25.5,13-30.7s2.2-1.6,2.9-2.4c5.3-.9,10-4.7,14.4-7.7,12.3-8.1,19-12.1,35.7-11.2Z" style="fill: #f9b7ca;"/>
      <path d="M186.5,202.6c1.6.7,5.5,2.4,6.5,2.9s6.7,3.7,4.4,5.3c-2.1-.9-5-3.8-7.4-2.4-5.4-2.4-5.6-.8-8-1.2s-4-2.6-4.7-2.4c-1.7.6-1.2,6-4.4,6.5s-13.5-1.5-15.9-1.8c-7.9-.8-16.4-3-25.1-2.4s-15.2,1.5-9.4,3.5c1.1.2,2.2-1.2,2.4-1.2,9.7-.2,22.8.3,32.1,1.8s10.9,1.8,15.9,3.5,4.2.4,5.3,1.5c2.1,2.1-1.1,10.3.9,11.5s3.6-2.7,2.9,5.3c2.3,1.6,13.2-2.9,15.6.6-7.5,1-17.3,4.1-24.2,7.1-1.4-2-3.5.4-4.1.6-9.7,2.8-13.9,9.9-23.6,15.3-2.7,1.5-5.8.9-7.7,5-4.5,9.9-.5,24.9-17.7,28.6s-.8,0-1.2,0c-9.2,1.2-10-4-18.9-3.5s-1.1.6-1.2.6c-8.5.3-6.9-1.9-13.3-3.5-2.1-.5-6,.5-8.3,0-9.2-2-10.9-14-13.9-21.2-5.1-12.3-5.1-5.9-12.7-11.8-5.2-4-3.7-12.1.9-15.9,2.4-1.9,8.5-2.5,10-5.6s-1.3-6.8-.6-10.6,19.1-22.9,21.5-24.5c4.8-3,10.2-3.3,15.6-4.1s2,.1,2.9,0,.4,0,.6,0c.6,0,1.2,0,1.8,0,6.7-1.2,14.6-4,20-4.7,17.7-2.3,46.3,9.4,62.5,17.1Z" style="fill: #f9b7ca;"/>
      <path d="M346.3,169.6c13.2,2,10.1,7.9,14.7,15.6,3.8,6.3,9.9,8.4,15.9,19.2.9,1.7,2.1,4.6,2.9,6.5,3.4,7.5,7,9.7,6.5,18.9-.9,15.7-8.6,13.2-14.7,22.1s-2.5,7.3-4.7,10-15.3,8.7-19.5,9.1c-8.8.9-14-3.6-19.5-9.4-.2-.2-.5-.5-.6-.6-.1-.2-1.1-3.3-1.8-3.8-4.8-4.5-13.6-1.7-19.5-2.1s-2.2-.2-3.5-.6c-1.9-.5-8.2-3.2-10.6-4.1s.2-1.3-.9-1.8c-2.9-1.2-7.7-1.2-11.2-2.9s-8.2-8.2-13.3-10c0,0-1.1-.4-.6-1.8.3-.1,1.2.3,1.2-.6,2,.5,3.8.4,5.6,1.8,1.5-4.7,2.3-5.2,5.6-8.5s.2-2,.6-2.4c1.8-1.8,3.5,0,5.3-1.8s.2-1.9.6-2.4c.8-.8,3.5-2.7,3.5-2.9.3-.8-1.8-5.5-1.8-6.2.1-17.9,7.9-13.9,17.1-25.9,1.9-1,8.6-9.2,10.6-11.5s2.8-2.7,1.2-3.2c.9-.2,1.6-.9,2.9-1.2s3.4-.5,4.7-.6c4.8-.3,18.2.4,23,1.2Z" style="fill: url(#linear-gradient);"/>
      <path d="M108.1,175.5c1.6.7,3.3,1,4.7,2.1-.9.8-1.6,1.7-2.4,2.7-1.6,0-2.1,1.4-2.9,2.4s-.8.7-1.2,1.2c-1.4,1.7-3.5,3.6-3.5,5.9-.2,0-.7,0-.6.6-.2,0-.4,0-.6,0-.3-1.1-2.1-.5-2.9-.6s-2.4-1.4-3.5-.3l3.5.3v.6c-5.4.8-10.9,1.1-15.6,4.1s-21.1,22.5-21.5,24.5c-.7,3.8,2.3,7.1.6,10.6s-7.6,3.7-10,5.6l-5.6.6c.3-1.4,4-1.3,1.8-2.9-21.2-.5-42.7-12.7-38-36.9l-4.7,6.5,10-29.5c.3-.6,4.7,3.1.6-5.3,5.4,3,.8-.9.6-2.4-.6-4.4,1.7-6.9,5.3-9.1s1.4-1.5,2.4-1.8c3.7-1.1,7.7-.4,11.5-.6,4.2,1.3-4.3,6.7-4.7,8.8l7.7-8.3c7.4,1.3,13.3,2.4,20.3,5l-20.3,22.7c5.4-4.3,11.5-8.8,16.2-13.9s3.5-7.6,5.6-8.5,15.6,5.6,18.9,4.1c8.9,4.1,19.1,7.7,28.6,11.8Z" style="fill: url(#linear-gradient1);"/>
      <path d="M403.5,87c8,8.2,17.3,20.8,18.9,32.4,1.2,8.9-1,17.6-7.7,23.9,1.9,2,4.5-4.3,5.6-4.4,1.1-.3.3,2.5.3,2.7-1.1,3.4-6.3,11.2-8.8,14.2,1.4,1,6.8-4.5,7.7-5.6-.8,6-4.7,11.2-7.1,16.2-.1.2,1.6.2,1.2,1.2-2.7,5.5-7.9,10.5-10.6,15.3s-1.6,6.9-2.9,9.4c-2,3.8-5.7,7.1-7.7,10.9-1.5,1.1-2.5,1.9-4.1,2.9l5-9.4c-4.1,4.2-11,4.9-16.2,7.7-6-10.8-12.1-12.9-15.9-19.2-4.7-7.7-1.6-13.6-14.7-15.6,1.1-2.2-4.2-.9-5-1.2s-1.1-2.4-1.5-2.9c5.7-.2,9.8-2.3,16.8-1.8,6.1.5,18,7,21.5-1.5.9-2.3.3-5.4,1.2-7.7,1.6-3.9,7.5-8.4,8.3-13,2-11.4-7.4-11.7-8.3-15.9-1.4-6.6,9.9-8.5,8.3-17.1-1.2-6.4-8.4-4.3-12.1-5.6-1.7-.6-3.3-1.8-5-2.4,4.6-6.5,9.3-13.3,10-21.5.5-.4,2.9,1.9,2.9,2.1,1.2,2,1.5,6.5,2.1,8.8,1.7,1.4,3.7-8.9,2.7-10.3l2.9,2.9.3-6.8c3.5,4.3,8.3,7.3,12.1,11.2Z" style="fill: url(#linear-gradient2);"/>
      <path d="M242,352.4h2.9c.5,1.6,2.2,0,2.4,0,.8-.2,2-.3,2.9-.6-1.8,4.4-2.3,9.3-3.5,13.9s-1.5,5.4-2.4,8.5-2.9,5.8-2.9,6.2,1.4.9,1.2,1.8c-1.3,4.6-2.7,9.3-4.1,13.9-1.5-1.4-1.8,1.1-.6,1.8-3.5,10.7-8.9,21.1-13.6,31.2s-2.7,8.7-5.6,11.8c-.5,0-5.8-6.3-8-5.3-.8-.9-6.8-8.4-7.4-8.3-1.2.3,1.1,2.5-.6,2.4-12-10.5-20.9-25.3-21.5-41.6l-1.8,8.8c-2-11.1-3-22.7.6-33.6-1.2-1.8-1.4.4-1.5.3-.5-1,2.2-11.2,2.7-13.6s.7,0,.6-.6c4.4,2.3,6.9,5,12.7,4.1s6.5-4.3,8.3-4.1c4.4.5,7.6,9.9,20,7.1,8.6-2,7.3-4.1,19.2-4.1Z" style="fill: url(#linear-gradient3);"/>
      <path d="M284.4,58.7c.7,5.4,6.2,12.1,4.7,18.6l2.9-6.2c1.2,2.2,2.2,4.9,2.4,7.4l2.9-1.8c-1,1.3-.8,3.5-1.2,4.4-1.2,3.1-11.8,11.9-15.3,16.5s-6.1,7.6-7.1,12.4c-4.3,3.6-19.8,19.3-22.4,23.6,3.1-14.9,10-25.5,7.7-41.3-.5-3.3-.2-6.6-3.8-8.8s-11.3-2-11.8-2.4-.8-10-9.1-5.9c0,0,.1.3-1.2.6-2,.4-2.2,1.7-2.4,1.8-1.5.2-3.2.3-4.7.6s-4.9-.5-7.7,0c.3-4.9-2.7-9.8-3.5-13.9s.7-3.1.6-3.5c-.7-3.1-5.3-16.2-5.3-17.7,0-2.9,11.3-14.6,4.1-20.3-.1-1,0-1.5.6-2.4,1,.4,6.8,3.3,7.1,2.7l-6.5-7.1c1.1-2,11,8.2,12.7,9.1,6.2,3.6,12.7,3.5,18.9,5.9,9.5,3.7,20.2,12.1,26.5,20l-2.4-6.5,13.3,14.2Z" style="fill: url(#linear-gradient4);"/>
      <path d="M435.4,276.3c-2.5-2.1-7.1-2.9-9.1-6.5-2.1,1.1,10.3,13.1,10.9,15.3-.4-.4-7.4-6.6-7.1-4.4s6.3,10.2,6.5,12.4l-4.7-3.5,4.1,14.7-2.9-2.9c0,1,1.9,5.6,1.8,5.9-.3,1-1.7-.6-1.8,0-.4,2.1.3,4.4-.6,6.5l-1.2.6c-2.8-4.1-3.1.1-4.4.3-5.1.7-9.3-1.1-13.9-1.2-.5-1.6-4.5-1.6-5.6-1.2l-19.2-10.9c0-.8,5.8-3.6,6.8-3.8,3-.9,7,.2,9.4-1.8-2.2.6-5.3-.7-7.1-.6s-6.6,3.2-7.7,3.5c-7.5,2.7-9.3-1-16.2-4.4,6.3-5.9,15.4-5.8,23.3-8-9.8-1.7-17.4,2.6-25.9,6.5l-15.6-6.8c10.7-11.7,27.5-15.4,42.5-17.1-.5,0-1.4-.9-1.5-.9-10.2-1-26.1,5.4-36.6,11.8s-5.5,5.8-5.9,5.9c-.8.2-12.4-5.7-14.4-6.5,2-3.3,5.3-4.7,8.3-6.8s2-1.6,0-1.5c4.2-.4,16.6-5.6,19.5-9.1s3-7.6,4.7-10c6.1-8.9,13.9-6.4,14.7-22.1,1.1-.7,3.5,1.1,4.4,1.8,17.3,12.2,30.3,29.4,44.5,44.8Z" style="fill: url(#linear-gradient5);"/>
      <path d="M200.7,19.8c1.9,2,3.4,4.3,5,6.5,2.3-.1-1.3-7.4,0-8.3s7.4,1.8,9.1,2.4c-.5.8-.7,1.3-.6,2.4.7,6.5,1.7,10.7-3.2,16.5-3,1.8-3.4-9.5-6.8-7.4l10.6,46.9c-5.3,2.4-7.8,12.5-12.7,13.6s-14.3-3.8-21.8-2.4-5.9,3.9-7.1,4.1c-5.5,1.2-19.9-1.4-22.1-7.1s-1.6-10.2-1.8-14.4c2.8-.2-.5,5.9,2.9,4.7l2.1-18.6.9,3.2,1.2-13,2.1,8c1-2.8,1.2-5.4,2.1-8.3l1.5,5.9c1.4-7.3,7.2-10.3,8-18,1.8-1.8,1.8,4.4,2.1,4.4l4.1-9.4c.3,8.4,1.4,2.1,4.4-2.4s2.4-4.1,3.5-5.3c-.7,4-2.3,7.7-.3,11.8,0-5.8,3.6-10.2,7.4-14.2,0,.6-.7,4.8,1.2,3.8l1.2-9.1c1,.8,5.9,3.7,7.1,3.5Z" style="fill: #84a945;"/>
      <path d="M99.9,124.2c-.2,3.3-1.7,7,.6,10-.4-.4-2.1,0-2.1-2.4l-2.1.3c3.5,10.2.1,21.3.6,31.8-2.5,2.3-5-1.3-7.7-.3-15.4-5.2-46.7-13.7-61.6-11.8-.2,0-2.9,1.9-3.2,2.4-1,.3-1.7,1.4-2.4,1.8-1.9-1.7-5,1.1-6.2,2.4-.2-13.4,16.7-14.1,24.2-19.5,7.2-5.2,9.1-17.1,19.5-17.7l-3.2-.9c9.4-6.7,21.1-3.8,31,.3l-3.2-3.2c.8-1.6,8.9,4.4,10.3,5l-1.8-2.9c3,1.8,5.2,1.7,7.4,4.7Z" style="fill: #6d9943;"/>
      <path d="M392.9,346.5c2.8,1.3,6.1,1.1,8.8,1.8s1.7-.2,1.8.3c-4.5,1.2-9.6,2.6-14.4,3.8-1.4.4-1.8-1.4-3.8.9.1,1.3,7.2.9,8.8.9.5,2.1-1.8,2-3.2,2.4-13.5,3.7-38.1,3.1-51.3-1.8s-8.9-5.6-13-7.1-1,1.6-2.4,1.2c-4.5-1.4-8.6-3.8-13.3-4.7-.1-3.8-.8-8.7-1.8-12.4l33.9,18.9-6.8-5.6.9-.9c.5,0,7.8,3.2,9.4,3.5s.1-1.5,1.8-1.8,1.6,1.7,1.8,1.8c5.7,1,11.1,2.3,16.5,2.4s11.8-2.7,17.7-.6c-7.3-5.9,4.7-1.1,8.5-2.9Z" style="fill: #abaca2;"/>
      <path d="M437.1,285.1c1.7,1.9,3,3.3,3.5,5.9,1.4,6.2,2.7,22.8-4.7,25.1h3.5c-4,4.5-7.4,7.4-13.6,8.3l6.8-.3-5.6,2.7c.2,1.4,5.8,3.7,5.9,4.1.2,1.5-12.6,12.4-14.7,13.9-18.2-1.4,6.4-7.1,5-14.7-2.9,2.5-2.5,0-2.7,0l-4.4-1.8-9.1,2.7,14.7-7.1-13.3,2.1c-2.9-1.5,14-6,15-5-4.2-.4-7-2.4-10.6-3.8l-2.4-3.2c1-1.1,1.8-.3,2.4-.3,4.5,0,8.8,1.9,13.9,1.2,1.3-.2,1.6-4.4,4.4-.3l1.2-.6c.9-2.1.2-4.4.6-6.5s1.4,1,1.8,0-1.8-4.9-1.8-5.9l2.9,2.9-4.1-14.7,4.7,3.5c-.2-2.2-6.4-11.7-6.5-12.4-.3-2.2,6.7,4,7.1,4.4Z" style="fill: #d1d0ca;"/>
      <path d="M46.2,325.2c.3,2.6-1.3,3.2,2.1,5.9,6.1,4.9,14.6.9,23.9,11.8s4.7,5.1,2.9,6.5c-2.1-.4-3.6,1.1-2.1-1.8-5.2-1.2-9.6-5.1-14.2-7.1s-7.7-.8-11.8-2.9-14.3-15.9-15-22.1l1.2-12.1c1.5-3.6,3-6.9,5.9-9.4s2.1-2.5,2.9-2.1c-1.6,2.3-7.2,15.6-2.4,11.2-.7,2.3-3.8,8.7,0,5.3-.8,4.3-1.2,8.7.9,12.7l2.1-4.4.6,7.7,2.1-4.4c0,1.8.7,3.6.9,5.3Z" style="fill: #d1d0ca;"/>
      <path d="M426.5,134.8c1.9,18.8-19.5,57.4-34.2,68.4,2-3.8,5.7-7.1,7.7-10.9s1.6-7,2.9-9.4c2.7-4.8,8-9.9,10.6-15.3s-1.3-.9-1.2-1.2c2.3-5,6.3-10.2,7.1-16.2,5-6.3,2.1-10.8,7.1-15.3Z" style="fill: #a8ab94;"/>
      <path d="M403.5,87c-3.8-3.9-8.6-6.9-12.1-11.2l-.3,6.8-2.9-2.9c1.1,1.4-1,11.7-2.7,10.3-.6-2.3-.9-6.8-2.1-8.8.1-3-4.5-6.4-4.7-6.8s1.2-.8,1.2-1.5c0-3.6-1.6-7.4-.3-10,1.7-.2,4.7,13.2,8,13.3l-5.3-14.7c5.3.6,8.9,4.1,11.8,8.3l9.4,17.4Z" style="fill: #d1d0ca;"/>
      <path d="M333.9,73.5c-.6.2-3.6,0-2.7,1.8l5.3-.6c-4.8,1.9-11.4,1.6-15.9,2.9-6.4,1.9-11.8,5.7-18.6,7.7,1.3-1.5,3.3-2.9,3.8-4.7-7.1,3.6-15.4,8.9-20.3,15.3l-4.7,1.8c3.5-4.6,14.2-13.4,15.3-16.5,2.6,0,18-8.6,18.9-6.8s-5.9,1.7-4.4,3.2l15.9-7.1-3.5,3.5,11.8-2.9-.9,2.4Z" style="fill: #a8ab94;"/>
      <path d="M96.3,354.7c0,0,0,1,.9,1.2,2.6.7,7.7-.5,10.6,0l-2.9,3.5c2.9-1,16.3-8.1,9.4-2.4,1.9-.9,4.4-1.1,6.2-1.8-10.6,6.1-20.7,9.3-32.1,2.9s-6.6-7.7-13.3-8.8c1.7-1.4-1.6-4.9-2.9-6.5,6.6,2.7,13.1,8,19.8,10.6.2,0,3-.3,4.1,0s.2,1.2.3,1.2Z" style="fill: #abaca2;"/>
      <path d="M255.5,445.5c-10.6,4.9-20.1,4.6-31,.6l1.5-2.4c8.4.6,9.7-.4,17.4-1.8s-.6,1.7,1.8,1.2,3.9-3.1,5.3-2.9c.6,2.1-4.5,3.8-4.4,4.4.2.9,1.5-.4,2.1-.3,1,.2-2,1.7,0,1.8,2.1-2,10.7-7.8,7.4-.6Z" style="fill: #d1d0ca;"/>
      <path d="M435.4,276.3c9.1,7.7,13.6,20,10.9,31.8-1.2-5.8-1.2-12.4-5.6-17.1-.6-2.6-1.9-4-3.5-5.9-.6-2.2-13-14.2-10.9-15.3,2,3.6,6.7,4.4,9.1,6.5Z" style="fill: #d1d0ca;"/>
      <path d="M426.5,134.8c-5,4.6-2.1,9-7.1,15.3s-6.3,6.6-7.7,5.6c2.5-3,7.8-10.8,8.8-14.2s.8-2.9-.3-2.7c-1.1,0-3.7,6.4-5.6,4.4,6.7-6.3,8.9-14.9,7.7-23.9,3,5.4,3.5,9.1,4.1,15.3Z" style="fill: #d1d0ca;"/>
      <path d="M180.6,29.2c-3,4.5-4.2,10.8-4.4,2.4l-4.1,9.4c-.3,0-.2-6.2-2.1-4.4-.7,7.7-6.6,10.7-8,18l-1.5-5.9c.4-1.2.2-3.2,1.5-4.1,1.1,1.4-1.2,3.7.9,2.7l2.4-7.7,1.8,1.8c.3-4.3,3.4-5.4,4.1-8.8.9,7,5.1-7.7,6.5-10s3.4-4.8,5.6-6.8c.3,4.3-6.1,9.6-2.7,13.6Z" style="fill: #d1d0ca;"/>
      <path d="M418.3,344.7c-1.2.8-2.3,1.7-3.5,2.4-1.2-1.5-4-.5-6.2-.6s-.2-1.2-.3-1.2c1.4-.4,1.5-1.5.3-2.4-1.5,0-3,0-4.4,0l7.7-4.4-5.6.9c-1.1-.6,5.9-3.2,6.5-3.5,2.2-1.5,5.4-5.3,8-5.9s-.3,2.5,2.7,0c1.4,7.7-23.2,13.4-5,14.7Z" style="fill: #abaca2;"/>
      <path d="M408.2,345.3c0,0-.2,1.2.3,1.2,2.2,0,5-.9,6.2.6-6.1,3.4-14.1,6.9-20.6,7.1s-8.7.4-8.8-.9c2-2.3,2.5-.5,3.8-.9,4.8-1.3,10-2.6,14.4-3.8,0-.5-1.3-.2-1.8-.3.6-1.8,4.7-2.9,6.5-2.9Z" style="fill: #d1d0ca;"/>
      <path d="M181.8,349.4c.1.7-.6.5-.6.6-9.1-1.8-20.3,3.3-23.6-8.8,6.9,5.3,12.2,2.7,18.6,4.1,2,.4,4.2,3.4,5.6,4.1Z" style="fill: #94948f;"/>
      <path d="M226.6,430.2c-1.1,4.4-1.5,8.5-1.2,13-3.2-.4-6.8-2-6.8,2.9-.8.2-7.1-9.5-8-10.6,2.2-1,7.5,5.4,8,5.3,2.9-3.1,3.4-7.1,5.6-11.8l2.4,1.2Z" style="fill: #abaca2;"/>
      <path d="M388.2,206.1c-2.7,1.7-5.1,3.7-8.3,4.7-.9-1.9-2-4.8-2.9-6.5,5.2-2.8,12.1-3.5,16.2-7.7l-5,9.4Z" style="fill: #abaca2;"/>
      <path d="M39.1,294c-2.9,2.5-4.4,5.9-5.9,9.4s-2.3,5.9-2.9,9.1c-1.8-11.8,4.1-17.7,10-26.2,1.4,3.6,0,4.2-1.2,7.7Z" style="fill: #abaca2;"/>
      <path d="M191.3,21.6c-3.8,3.9-7.4,8.4-7.4,14.2-2-4.1-.4-7.8.3-11.8,1-1.1,6.8-3.2,7.4-7.1,1.6.4-.3,4.3-.3,4.7Z" style="fill: #dddfd0;"/>
      <path d="M292.1,71.1l-2.9,6.2c1.5-6.5-4.1-13.2-4.7-18.6s1-3.1,0-4.4c1.4-2.8,3.9,11.7,4.1,12.4,1,2.6,2.9,3.2,3.5,4.4Z" style="fill: #bdbfa9;"/>
      <path d="M200.7,19.8c-1.2.2-6-2.7-7.1-3.5-1.6-1.3-3.1-2.2-3.5-4.4,4.7,1,7.5,4.7,10.6,8Z" style="fill: #bdbfa9;"/>
      <path d="M218.4,169c-.1.7.6.6.6.6,1.9,2.1,1.5,5,4.7,5.6,1.2,18.2-.8,38.1,0,56s1,11.6,2.4,12.1,4.8.1,5.3,0c3.6-.9,1.4-2.9,4.7-1.5-4.3-8.6-5.5-18-6.5-27.4l2.4-.9c.7,1-.3,7.6,2.4,8,.5,3.9.2,10.2,2.4,13,.3,1.9,1.5,3.6,1.2,5.6l1.5.9c.5-.2.8-1.2.9-1.2,6.9-2.6,11.9-8.6,19.8-7.1s.6,4.1,6.2,1.2c-.5,1.3.6,1.7.6,1.8,0,5.8-3.7,2-6.8,2.4s-6,2.8-3.8,4.1c-3.1.2-3.9,2.9-5.6,4.1s-1.3-.3-2.1.3.4,1.5-.3,2.1-3-2.3-2.4,2.9h-4.7c1.6,7.7-3.8.2-4.7.6v7.1c-4.3-8.9-2.4,2.1-4.7,1.2s-1-8.1-3.2-8.5c-1.6,2.8.7,17.7-.3,18.6s-2.5,0-3.2.3c-.4-2.1,1.4-7.8.6-9.4s-4.2-.2-4.4-.3c-.4-.2,1.3-3-.6-2.9l-8.3,19.5,8.8-24.8c-7.1,5.2-10.9,15.3-15.3,23-.5-.1.7-5.6.9-6.2.4-1.1,4.6-6.7,4.7-7.1s-1.3-2.7-1.5-2.7c-.8,0-2.5,4.3-3.2,2.1l6.2-9.7c-3.6,1-6,4.7-8.8,6.5s-1.9-.9-2.4-.6c-3.2,2.3-6.2,6.9-9.4,9.4-.7-4.1,17.4-15.8,16.8-16.8-2.7-1.4-9.7,6.3-10.3,6.2-1.4-.2,1.9-2.4,0-2.4l-9.7,6.8,23.6-14.7-11.5.9,1.5-2.1c-3.4-.4-.9-2-1.2-2.9s-1.6,0-1.8-.6c-.4-1.2,2.8-1.8-.6-2.4l3.5-1.5c2.6.1,5.4,0,8,.6s15.1,7.7,13.3.9-20.3-6.3-25.9-5.6c-2.5-3.4-13.4,1-15.6-.6.7-8-.6-3.9-2.9-5.3s1.2-9.4-.9-11.5-3.9-1-5.3-1.5v-3.5c3.2-.5,2.8-5.9,4.4-6.5s4,2.2,4.7,2.4c2.4.4,2.6-1.2,8,1.2,8.3,3.7,17.7,11.9,25.1,16.5s2.6,4.2,4.1,4.1c4.5-.2-3.5-5.5-2.4-7.1l5.9,7.1c-2.5-6-9.2-13.4-14.2-17.7s-8.9-5.6-12.1-8.3-2.7-3.9-2.9-4.1c2.1-4,6.9-.3,1.2-5.9,3.5-1.7-2.1-7.7-4.1-10,2.7-2.5.4-8.2,3.2-8.8s6.4,7.8,7.7,7.7c5.8-.5-5.3-5.9,2.7-10.6.7-.4,2.1-.9,2.9-1.2s2.5-.4,3.5-.6c.8,1.3,1.4,2.9,3.2,2.4.4-4.2,1.4.1,4.4-2.9Z" style="fill: #dc4771;"/>
      <path d="M202.5,238c-16.6-.9-23.4,3.1-35.7,11.2-4.4,2.9-9.2,6.8-14.4,7.7,4.1-4.3,12.6-12,17.7-14.7,1.2-.6,2.5-.7,3.5-1.2,6.9-3,16.7-6.1,24.2-7.1s24-1.7,25.9,5.6-10.4-.3-13.3-.9-5.3-.4-8-.6Z" style="fill: #f693ab;"/>
      <path d="M306.2,255.1l-7.7,5.6c2.9.8,11,5.5,13.3,5.6,3.3.2,11.5-5.6,15.6-5.3,0,.1.4.4.6.6-1.5,1-13,4.3-12.4,6.2,9.1,3.2,13.8,12.1,21.5,2.1,2.7-.2-5.4,5.2-3.2,7.1-2.8,0-2.4,1.1-2.4,3.5-1.7-.7-3.5-1.2-5-2.4l-6.5,17.1c-.9-3.1,5.4-15.9,5-17.4s-11.4-6.3-12.1-6.2c-1,.1-10.2,15.4-10.3,16.8s1.2,2.8,1.2,4.4c-.6,0-1.2,1.2-1.5,1.2s0-1.3-.9-1.2c0-1.4-.3-2.8-.6-4.1l10-17.4-13.6-5.6c-.2-1-1.9-3.9-2.4-5.3,2.8,0,6.2-3.6,7.7-5.9,1.3.3,2.1.5,3.5.6Z" style="fill: #617622;"/>
      <path d="M145.9,256.8l3.5,2.4c-4.5,5.2-12.6,24-13,30.7-4.8.1-13.1,5.7-15.9.6,17.2-3.7,13.2-18.7,17.7-28.6s5-3.5,7.7-5Z" style="fill: #456a2a;"/>
      <path d="M292.1,250.3v1.8c-7.8,1.3-15.2-5-22.1-7.1-.9-.3-13.1-3-13.9-2.9-2.1-1.3,3.5-4.1,3.8-4.1,3.1-.4,6.8,3.5,6.8-2.4,5.1,1.9,8.8,7.8,13.3,10s8.3,1.8,11.2,2.9.8,1.7.9,1.8Z" style="fill: #f693ab;"/>
      <path d="M300.9,288.7c-.5-2.8-3.1-6.7-3.5-9.7-.6-4.2,1-8.5,0-13.3l13.6,5.6-10,17.4Z" style="fill: #345927;"/>
      <path d="M303.9,292.8c0,3.9,1.2,7.3,0,11.5s-3.5,4.4-3.5,4.7c-.3,2.2,6,9.9,4.7,12.7-2.4-4.5-6-8.9-10.6-11.2,3.5-5.6,7.1-10.7,7.1-17.7.8-.1.5,1.2.9,1.2s.9-1.2,1.5-1.2Z" style="fill: #aa635e;"/>
      <path d="M169.4,241.5l.6.6c-5.1,2.7-13.6,10.5-17.7,14.7s-2.2,1.5-2.9,2.4l-3.5-2.4c9.7-5.5,13.9-12.6,23.6-15.3Z" style="fill: #345927;"/>
      <path d="M302.7,254.5c-1.4,2.3-4.8,5.9-7.7,5.9-1.1-3.2-2.9-3.6-2.9-8.3v-1.8c2.4.9,8.7,3.6,10.6,4.1Z" style="fill: #345927;"/>
      <path d="M244.3,352.4h-2.4,2.4Z" style="fill: #56403a;"/>
      <path d="M247.3,352.4c-.1,0-1.9,1.6-2.4,0h2.4Z" style="fill: #56403a;"/>
      <path d="M187.1,202l-.6.6c-16.2-7.7-44.8-19.4-62.5-17.1l2.1-1.2c-2.2-.8-5.1-3.9-6.8-4.7v-1.2c13.7,5.9,26.1,3,38,6.5,7.4,2.2,21.4,13.2,29.8,17.1Z" style="fill: #41541a;"/>
      <path d="M190.1,208.5c2.4-1.4,5.3,1.4,7.4,2.4,2.3-1.6-3.4-4.7-4.4-5.3v-.6c1.8.4,2.2,0,3.5-1.8,3.2,2.7,8.4,5,12.1,8.3s11.6,11.7,14.2,17.7l-5.9-7.1c-1.1,1.6,6.9,6.8,2.4,7.1s-3.3-3.6-4.1-4.1c-7.3-4.6-16.8-12.8-25.1-16.5Z" style="fill: #f693ab;"/>
      <path d="M119.3,179.6c1.7.8,4.6,3.9,6.8,4.7l-2.1,1.2c-5.5.7-13.3,3.6-20,4.7,0-.4,0-.8,0-1.2,1.8-1.3.9-1,1.8-2.4,1.1-1.2,7.9-8.7,8.5-8.8s4.3,1.5,5,1.8Z" style="fill: #456a2a;"/>
      <path d="M119.3,290.4l1.5,2.9c-.3.4-9.5,3-10,2.9-.9-.1-9.2-7.9-10.3-9.4,8.9-.4,9.7,4.7,18.9,3.5Z" style="fill: #456a2a;"/>
      <path d="M157.1,209.7v1.8c-9.3-1.5-22.5-2-32.1-1.8-.1,0-1.2,1.3-2.4,1.2-5.8-2,8-3.4,9.4-3.5,8.7-.6,17.2,1.5,25.1,2.4Z" style="fill: #f9b7ca;"/>
      <path d="M173,211.4v3.5c-5-1.7-10.7-2.7-15.9-3.5v-1.8c2.4.2,15.1,1.9,15.9,1.8Z" style="fill: #e97499;"/>
      <path d="M173.6,240.9c-1.1.5-2.3.5-3.5,1.2l-.6-.6c.6-.2,2.8-2.5,4.1-.6Z" style="fill: #8e6557;"/>
      <path d="M101.6,190.2c-.9.1-2-.1-2.9,0v-.6c.9.1,2.6-.5,2.9.6Z" style="fill: #a0aa41;"/>
      <path d="M104,190.2c-.6,0-1.2,0-1.8,0,0-.7.4-.5.6-.6.3-.2.9-.4,1.2-.6,0,.4,0,.8,0,1.2Z" style="fill: #a0aa41;"/>
      <path d="M89.3,163.7c6.1,2.1,13.6,5,19.5,7.7s2.3,2.1,4.1,2.9c-.9,2.5-3,0-4.7,1.2-9.5-4.1-19.7-7.7-28.6-11.8-3.3,1.5-16.2-5.3-18.9-4.1s-4.2,7-5.6,8.5c-4.7,5.1-10.8,9.5-16.2,13.9l20.3-22.7c-7-2.6-13-3.7-20.3-5l-7.7,8.3c.4-2.2,8.9-7.5,4.7-8.8-3.8.2-7.8-.5-11.5.6.4-.4,3-2.3,3.2-2.4,14.9-2,46.2,6.6,61.6,11.8Z" style="fill: #b1c045;"/>
      <path d="M100.5,134.2c4.6,4.4,1.5,6,2.9,10.9s5.5,5.9,5.9,7.7c1.7,7.4-7.8,12.2-.6,18.6-5.9-2.6-13.4-5.6-19.5-7.7,2.7-1,5.1,2.6,7.7.3-.5-10.6,2.9-21.7-.6-31.8l2.1-.3c0,2.4,1.7,2,2.1,2.4Z" style="fill: #618b3f;"/>
      <path d="M226,141.3l-1.2,70.5c.2,3.6,1.4,7.7,1.8,10.3l-.6,21.2c-1.4-.5-2.3-10-2.4-12.1-.8-18,1.2-37.8,0-56-3.2-.6-2.8-3.5-4.7-5.6.2.2,1.8.3,1.8-.9s-3-.5-1.8.9c0,0-.7,0-.6-.6.2-.2-.3-2.7,2.9-4.1l-.3-1.8-.3,1.8c-5,.7-8.8-8.2-8.8-13.3,2.8.5,1.6,7.4,5.3,5,1.1,4.4-.4,5.8,5.3,4.4,1-2.1-1.6-11.8-1.2-12.4s1.8.3,2.9-1.2,1.6-8.5,1.8-9.7v3.5Z" style="fill: #f8a4ae;"/>
      <path d="M201.9,150.7c-4.2,4.5,5.2,13.5,5.3,19.5-.9.3-2.2.7-2.9,1.2-.9-2.6-7.3-6.9-8.3-5.3-.9-.8-5.2-6.3-5.3-6.8-.2-1.7,1.2-1.7,1.2-3.2,0-2.9-.6-3.6-2.4-6.5l3.5-1.2c1.7,2.2,3.3,4.4,5,6.5,3.8-1.9-2.4-5.9-1.5-8,2.1-4.8,4.8,3.1,5.3,3.8Z" style="fill: #f693ab;"/>
      <path d="M218.4,78.2c-.8.1-3.4.5-3.5.6l-10.6-46.9c3.4-2.2,3.8,9.2,6.8,7.4,5-5.8,3.9-10,3.2-16.5,7.1,5.7-4.2,17.5-4.1,20.3s4.6,14.6,5.3,17.7-.9,2-.6,3.5c.9,4.1,3.9,9,3.5,13.9Z" style="fill: #b1c045;"/>
      <path d="M204.2,171.3c-7.9,4.7,3.1,10.1-2.7,10.6s-4.2-8.4-7.7-7.7-.5,6.3-3.2,8.8c-1.8-2-7.2-6.8-9.4-8.8l2.4-1.8c1.1.9,2.3,1.8,3.2,2.9,1.5-4.2,6.1-3.4,8.5-7.7s1-.6.6-1.8c.9-1.6,7.4,2.7,8.3,5.3Z" style="fill: #e97499;"/>
      <path d="M189.5,189c1.2.9,4.4,3.3,5.3,4.1,5.8,5.6.9,1.9-1.2,5.9-2.1-1.8-15.1-10.6-15.3-11.5s1.4-3.7,2.4-3.8c2.6,1.8,6.7,3.7,8.8,5.3Z" style="fill: #e97499;"/>
      <path d="M233.1,88.2c-.7,2.2-1.6,2.5-3.5,4.1s-.4,2-1.5,1.8-1.9-7.3-3.2-1.5,4.5-.6.6,3.2c-.2-2-2.7-.1-2.9-1.5-.4-2,2.2-1.2.3-2.7l-3.2,2.1c-.1,1.2.7,2.2,1.2,3.2l-5.3-1.2c.6-1.2,4.6-8.1,5.3-8.3,1-.2,2.8.5,5.3,0,.4,1.2,1,.7,1.8,0s.8-.3,1.2-1.2c1.6.9,1.9,2,4.1,1.8Z" style="fill: #f2b349;"/>
      <path d="M220.7,97c.4.9.7,2.1,1.8,2.4-1,2.4.9,5.1-3.5,7.7-.5,0-1.3,1-2.4.6-.7-.7-2.6-3.2-2.9-3.5-1.4-3.7.3-5.2,1.8-8.3l5.3,1.2Z" style="fill: #f5516c;"/>
      <path d="M226,78.8c2.5.7,3.9,5.4,2.9,7.7s-.8.8-1.2,1.2c-.9-.3-1.1-.1-1.8,0-2.5.5-4.3-.2-5.3,0-3.3-4.5-.1-10.3,5.3-8.8Z" style="fill: #f5516c;"/>
      <path d="M201.9,150.7c3.6,5.9,5.8,14,8.8,18.9-1,.1-2.6.3-3.5.6-.1-6-9.6-14.9-5.3-19.5Z" style="fill: #e97499;"/>
      <path d="M119.3,178.4v1.2c-.7-.3-4.8-1.8-5-1.8-.6.1-7.4,7.6-8.5,8.8.6-.9.8-2,1.8-2.7l-1.2-.3c.4-.5.8-.8,1.2-1.2.5,1.7,2.3-1.5,2.9-2.4s1.4-1.9,2.4-2.7c-1.4-1.1-3.1-1.4-4.7-2.1,1.7-1.2,3.8,1.4,4.7-1.2,2.3,1.1,4.4,3.2,6.5,4.1Z" style="fill: #a0aa41;"/>
      <path d="M230.8,77.6c-3.1,5.1,3.6,6.3,2.4,10.6-2.2.2-2.6-.8-4.1-1.8.9-2.3-.5-7-2.9-7.7v-.6c1.5-.3,3.2-.4,4.7-.6Z" style="fill: #f29f7a;"/>
      <g>
        <path d="M226,78.2v.6c-5.4-1.5-8.6,4.4-5.3,8.8-.7.1-4.7,7.1-5.3,8.3-1.5,3-3.2,4.6-1.8,8.3-1.4-1.1-2.7-.8-3.2-2.4-4.9,4.9-.9-2.1-4.4,1.5,3.1,3.1,1.1,2.7,1.2,2.9.8,1.8,2.9,2.7,2.9,2.9.2.9-1.2,1.6-1.2,1.8,2.7,8.9,3.4,1.6,4.4,1.5,3.5-.3-2.4,5.3-2.1,7.4.9,4.8,5.5,3.4,5.9,4.7s-1.8,3.1,1.2,4.7l-4.4.9c2.7-2.6,2.1-5.9-2.1-5.9-1.1-1.2-.9-7.1-1.2-7.4-.8-.6-3.1,2.5-4.1-2.9-5.5-2.8,2.6,11.6,4.7,10.9-1.1,1.7.2,2.8.6,4.7-2.1.9-1.1,2.1,0,3.5-.4,3.2-1.8-2.3-4.1-.3-1.4,2-.4,9.3,2.1,9.7s2.1-1.7,2.4-1.8c.7,0,4.1,5.9,1.5,7.4,5.9.8,1.7,3,1.8,3.5.2,1.3,1.4,3.3,1.8,5-3.8,2.4-2.5-4.6-5.3-5,0,5,3.9,13.9,8.8,13.3h.6c-3.2,1.4-2.7,3.9-2.9,4.1-3,3.1-4.1-1.3-4.4,2.9-1.8.5-2.4-1-3.2-2.4-3.1-4.9-5.3-13-8.8-18.9s-3.2-8.6-5.3-3.8,5.3,6.1,1.5,8c-1.7-2.1-3.3-4.3-5-6.5-10.1-12.9-20.8-23.5-33.9-33.6-.8,1.1-.2,1.7.3,2.7,3.1,6,24,22,30.1,32.1,1.7,2.9,2.3,3.6,2.4,6.5-9.6-10.2-19-20.7-30.7-28.6l-1.8.6,36,39.8c-2.5,4.2-7.1,3.4-8.5,7.7-1-1.1-2.1-2-3.2-2.9-3.1-2.5-10.4-11.8-11.8-5,.1.8,8.2,5.7,9.4,6.8,2.3,2,7.7,6.8,9.4,8.8s7.6,8.3,4.1,10c-.9-.9-4.1-3.2-5.3-4.1l-6.8-7.7c-12.3-7.9-24.8-15.8-39.2-19.2,13,6.3,25.2,13.5,37.1,21.5-1,.2-2.5,3.4-2.4,3.8.2.9,13.2,9.7,15.3,11.5s.2,1.8,2.9,4.1c-1.4,1.8-1.7,2.2-3.5,1.8s-4.8-2.4-5.9-2.9c-8.4-3.9-22.3-14.9-29.8-17.1-11.9-3.5-24.3-.5-38-6.5-2.1-.9-4.2-3.1-6.5-4.1s-2.8-2.4-4.1-2.9c-7.2-6.4,2.3-11.2.6-18.6s-5.1-5.1-5.9-7.7c-1.5-4.9,1.7-6.5-2.9-10.9-2.3-3-.8-6.7-.6-10,.3-5.5,0-18.1,2.4-22.1,3.4-5.8,12-4.1,16.8-7.4,8.3-5.7-.6-17.4,17.7-14.2s9.5,4.7,14.4,6.5c2.2,5.7,16.6,8.2,22.1,7.1s5.4-3.8,7.1-4.1c7.5-1.5,15.4,3.8,21.8,2.4s7.4-11.1,12.7-13.6,2.8-.5,3.5-.6c2.7-.5,6.5.2,7.7,0Z" style="fill: url(#linear-gradient6);"/>
        <path d="M193,204.9v.6c-1-.6-4.9-2.2-6.5-2.9l.6-.6c1.1.5,5.6,2.9,5.9,2.9Z" style="fill: #60312b;"/>
        <path d="M191.9,156c0,1.6-1.4,1.5-1.2,3.2s4.4,6,5.3,6.8c.4,1.1-.4,1.4-.6,1.8l-36-39.8,1.8-.6c11.6,7.9,21,18.4,30.7,28.6Z" style="fill: #f9b7ca;"/>
        <path d="M193,148.3l-3.5,1.2c-6.1-10.1-27-26.1-30.1-32.1s-1.1-1.6-.3-2.7c13.1,10.1,23.8,20.7,33.9,33.6Z" style="fill: #f9b7ca;"/>
        <path d="M189.5,189c-2.2-1.6-6.2-3.5-8.8-5.3-11.9-8-24.2-15.2-37.1-21.5,14.4,3.3,26.9,11.2,39.2,19.2l6.8,7.7Z" style="fill: #f693ab;"/>
        <path d="M151.5,171.9c1.4-1.4,22.9,10.4,25.1,13.3-1.1.8-2.2,0-3.2-.3-1.9-.7-20.9-9.9-21.5-10.9s-1.1-1.3-.3-2.1Z" style="fill: #f693ab;"/>
        <path d="M183.6,172.5l-2.4,1.8c-1.3-1.1-9.3-6-9.4-6.8,1.3-6.8,8.7,2.5,11.8,5Z" style="fill: #f693ab;"/>
        <path d="M211.9,124.2l-.6.6c-2.1.7-10.2-13.7-4.7-10.9,1,5.4,3.4,2.3,4.1,2.9s.1,6.2,1.2,7.4Z" style="fill: #f9b7ca;"/>
        <path d="M209.8,144.2c2.9,2.1,3.3,3,1.8,6.5-1.9.2-3.3-4.7-1.8-6.5Z" style="fill: #f2b349;"/>
      </g>
      <polygon points="221.3 164.9 220.7 164.9 221 163.1 221.3 164.9" style="fill: #f2b87a;"/>
      <path d="M303.9,184.9c-9.2,12-17,8.1-17.1,25.9l-8.8,1.5c1-1.5-1.3-6.7-1.2-7.1.2-.5,2.2-.4,2.4-1.8s-2.6-2.9-1.8-5.3,5.8-2.9,3.8-5.6c-.5-.3-7.6,5.3-8.5,5.9-9.8,6.3-31.4,25.5-33,37.1s-.1,3.9.6,4.1c0,0-.4,1-.9,1.2l-1.5-.9c.3-2-.9-3.7-1.2-5.6-1.3-7.7,3.3-14.4,7.1-20.6l.6.6c-.5.6-5.9,8.1-2.1,7.1s5.1-6.4,6.2-7.7c5.9-2.5,28.3-24.9,33.3-24.8s2.4,1.8,2.9,1.8,8-4.3,9.4-4.7c2.2-.6,2.2,1.2,2.4,1.2,1.4-.4,6.6-2,7.4-2.4Z" style="fill: #e97499;"/>
      <path d="M286.8,210.8c0,.7,2,5.4,1.8,6.2s-2.7,2.1-3.5,2.9-.5,2.3-.6,2.4c-1.8,1.8-3.5,0-5.3,1.8s-.5,2.3-.6,2.4c-3.3,3.3-4.1,3.9-5.6,8.5-1.8-1.3-3.6-1.2-5.6-1.8s-7.1-3.4-7.7-3.5c1.4-3.3,2.5-1.3,3.2-1.8,4.8-3,2.2-4.2,2.7-6.2s1.1-.9,1.2-1.2c.4-1.8.3-9,1.2-10.6s4.9-2.1,5.3-3.5-1.8-5.9-.6-8c1-.6,8.1-6.2,8.5-5.9,1.9,2.7-3.5,4.7-3.8,5.6-.8,2.5,1.8,5,1.8,5.3-.1,1.4-2.2,1.2-2.4,1.8s2.1,5.6,1.2,7.1l8.8-1.5Z" style="fill: #e97499;"/>
      <path d="M303.9,184.9c-.7.4-6,1.9-7.4,2.4s-.1-1.8-2.4-1.2-8.8,4.7-9.4,4.7-2.1-1.7-2.9-1.8c-5.1-.1-27.5,22.3-33.3,24.8,2.2-2.5,4.1-5.3,6.5-7.7,7.1-7,16.3-14.7,24.8-20,2.8-1.8,7.6-4.3,10.6-5.9,7.2-3.7,17.5-8.1,25.4-10,1.7.6-.7,2.7-1.2,3.2-2,2.3-8.7,10.5-10.6,11.5Z" style="fill: #f693ab;"/>
      <path d="M347.5,271c2-.2.6,1.1,0,1.5-2.9,2.1-6.3,3.5-8.3,6.8-1.5-.6-3.9-2.4-5.3-2.4-2.2-1.9,5.9-7.3,3.2-7.1-7.7,10-12.4,1.1-21.5-2.1-.6-1.9,10.9-5.2,12.4-6.2,5.5,5.8,10.7,10.4,19.5,9.4Z" style="fill: #345927;"/>
      <path d="M339.8,165.4c.4.6,1.2,2.8,1.5,2.9.8.3,6.1-1.1,5,1.2-4.8-.7-18.2-1.5-23-1.2l-4.7.6c-1.3.2-2,1-2.9,1.2-7.8,1.9-18.1,6.3-25.4,10-.3-.7,1.8-2.9,2.4-3.5,13.9-16,28-10.4,47.2-11.2Z" style="fill: #456a2a;"/>
      <path d="M327.5,261c-4.1-.3-12.4,5.5-15.6,5.3s-10.4-4.8-13.3-5.6l7.7-5.6c5.8.4,14.7-2.4,19.5,2.1s1.6,3.7,1.8,3.8Z" style="fill: #345927;"/>
      <path d="M259.7,229.7c.6.2,5.5,3,7.7,3.5,0,.9-.9.4-1.2.6-5.6,2.9-3.8-.7-6.2-1.2-7.9-1.5-12.8,4.4-19.8,7.1-.7-.2-.7-3.6-.6-4.1,4.6-10.9,10.6-8.6,20-5.9Z" style="fill: #e97499;"/>
      <path d="M323.3,168.4c-1.3,0-3.4.4-4.7.6l4.7-.6Z" style="fill: #9d806e;"/>
      <g>
        <path d="M305.1,321.7c.9,1.8,3.7,8.3,4.1,10,1,3.7,1.6,8.5,1.8,12.4.5,14.4-4.5,27.8-8.5,41.3-1-4.5-4,9.1-4.4,10.3-5.3,13.5-9.5,21.6-18.9,32.7-5.6,3.6-10.4,8.7-15.9,12.4s-4.4,3.2-7.7,4.7c3.3-7.2-5.3-1.4-7.4.6-2,0,1-1.6,0-1.8s-1.9,1.2-2.1.3,5-2.3,4.4-4.4c-1.4-.1-4.8,2.8-5.3,2.9-2.4.5-.2-1.5-1.8-1.2-7.7,1.4-9,2.4-17.4,1.8,0,0,.2-.5-.6-.6-.3-4.5,0-8.6,1.2-13s2.2-6.2,4.4-8.8l5.6,6.8c-.3-2.7-4.8-7.1-4.7-9.4s5.1-8.9,5-11.5c5.9,2.6,8,8.5,11.5,13.3,1-3.9-10.5-14.4-10.6-15.3s2.5-6.6,2.9-7.4,0-2.8,2.1-2.4l12.1,13.3c-1.3-1-2.7-7.3-2.9-7.7-.7-.9-.5,1.4-1.2.6-1.3-1.5-8.1-7.1-8.3-7.7-.3-1,4.5-17.6,5.3-19.8s-1.1-3.2,2.1-2.4,7.5,9.4,9.7,9.7c-.4-2.6-10.4-11-10.6-11.8-.7-2.9,5.3-15,4.7-19.2,5.5-3.2,12.7-15.8,15-17.1s7.2-1.1,11.8-4.7,11.7-14.8,13.9-18.3c4.6,2.3,8.2,6.7,10.6,11.2Z" style="fill: url(#linear-gradient7);"/>
        <path d="M279.1,428.4c-4.7,5.5-9.2,11.3-15.6,14.7l-.3-2.4c5.5-3.7,10.3-8.8,15.9-12.4Z" style="fill: #d1d0ca;"/>
        <path d="M253.8,350.6c.6,4.2-5.4,16.3-4.7,19.2s10.2,9.2,10.6,11.8c-2.2-.3-9.1-9.6-9.7-9.7-3.1-.8-1.5.9-2.1,2.4h-3.5c.8-3.2,1.5-5.5,2.4-8.5,1.2-4.6,1.7-9.4,3.5-13.9.9-.3,2.9-.8,3.5-1.2Z" style="fill: #617622;"/>
        <path d="M240.8,397.8c-.4.8-3,7-2.9,7.4.1.9,11.6,11.4,10.6,15.3-3.5-4.7-5.6-10.7-11.5-13.3,0,2.6-4.9,10-5,11.5-.1,2.3,4.4,6.8,4.7,9.4l-5.6-6.8c-2.2,2.7-3.6,5.5-4.4,8.8l-2.4-1.2c4.7-10.1,10-20.6,13.6-31.2.4.2,2.2-.2,2.9,0Z" style="fill: #a0aa41;"/>
        <path d="M247.9,374.2c-.8,2.1-5.6,18.7-5.3,19.8s6.9,6.2,8.3,7.7.5-1.4,1.2-.6,1.6,6.6,2.9,7.7l-12.1-13.3c-2-.5-1.6,1.5-2.1,2.4-.7-.2-2.6.2-2.9,0,.2-.6.4-1.2.6-1.8,1.5-4.5,2.8-9.3,4.1-13.9s-1.2-1.6-1.2-1.8c0-.4,2.2-3.5,2.9-6.2h3.5Z" style="fill: #819631;"/>
        <path d="M283.2,350c-.2-.2-1.3.2-1.5,0-3-2.7-5.6-5.8-8.5-8.5,3.8,1.6,7.4,5.5,10,8.5Z" style="fill: #456a2a;"/>
        <polygon points="285.9 378.3 288.5 383.3 289.4 390.1 285.9 378.3" style="fill: #618b3f;"/>
        <path d="M274.1,387.7c1.1.7,3.9,8.6,2.9,8.8l-2.9-8.8Z" style="fill: #618b3f;"/>
        <path d="M283.2,350c1,1.1,3.6,1.9,2.7,4.1-1.8-.4-2.5-4-2.7-4.1Z" style="fill: #456a2a;"/>
        <path d="M272.3,384.2c.4,0,1.4,1.7.6,1.8s-1.4-1.7-.6-1.8Z" style="fill: #618b3f;"/>
      </g>
      <path d="M96.3,354.7c0,0,.2-1-.3-1.2-1.1-.3-3.9,0-4.1,0-6.6-2.6-13.1-7.9-19.8-10.6-9.3-10.9-17.8-6.9-23.9-11.8s-1.7-3.3-2.1-5.9c2.8,8,11.5,4,18.6,7.1,11.7,5.2,21.8,23.5,38.3,20.6l-6.8,1.8Z" style="fill: #abaca2;"/>
      <g>
        <path d="M63.9,262.7c3,7.2,4.6,19.2,13.9,21.2,2.2.5,6.2-.5,8.3,0,6.4,1.6,4.8,3.9,13.3,3.5l9.1,9.4c-5.5.2-16.2,6.7-20.6,7.1s-10.5-6.6-13-5.9l10,6.5c-2-.5-8.9,4.6-9.4,4.7-2.8.4-11.2-3.9-14.4-.3,23.8,0-1.8,5.9-6.2,12.1l23.9-10.9c1.2,6.4-1.4,11-3.8,16.8,4.7-2.2,5.4-17.2,6.5-18.3s12.8-4.8,13.6-4.7c1.9,3.6.6,7.3,1.8,11.2,2.7-4.2-1.4-9.8,1.2-12.4,1.2-.7,23.5-6.6,24.8-6.5,2.8.3,2.5,3,2.9,2.9,1.1-.2-1-3,0-3.5l11.5-2.4c.4,5.5,4.1,16.3,7.1,20.9s8.1,7.4,8.8,9.4c1.5,4-.3,9.1,1.2,13.3-6.5,5.6-15.7,12.2-23.9,15.3s-5.9,1.9-7.4,2.4-1.7.4-2.4.6c-1.8.6-4.3.8-6.2,1.8,6.9-5.7-6.6,1.4-9.4,2.4l2.9-3.5c-3-.5-8,.7-10.6,0s-.8-1.2-.9-1.2l6.8-1.8c-16.5,2.8-26.6-15.5-38.3-20.6-7.1-3.1-15.8.9-18.6-7.1-.2-1.7-.8-3.5-.9-5.3l-2.1,4.4-.6-7.7-2.1,4.4c-2.1-3.9-1.7-8.4-.9-12.7-3.8,3.4-.7-3,0-5.3-4.8,4.4.7-8.9,2.4-11.2-.9-.5-2.2,1.4-2.9,2.1,1.1-3.4,2.6-4.1,1.2-7.7,6.4-9.2,13.1-18.6,23.6-23.6Z" style="fill: url(#linear-gradient8);"/>
        <path d="M156.5,340c-7.3,3.9-13.9,9-21.5,12.4-2.1.9-12.1,5.7-12.1,2.4,1.5-.5,6.9-2.2,7.4-2.4,8.2-3.1,17.4-9.7,23.9-15.3,0,.2,2,2.6,2.4,2.9Z" style="fill: #798169;"/>
        <path d="M100.5,286.9c1.1,1.5,9.4,9.3,10.3,9.4s9.7-2.5,10-2.9l-1.5-2.9c.4,0,.8,0,1.2,0,2.8,5.1,11.1-.5,15.9-.6,0,.2.5,2.5.6,3.5l-11.5,2.4c-1,.6,1.1,3.3,0,3.5s-.2-2.7-2.9-2.9-23.5,5.8-24.8,6.5c-2.6,2.6,1.6,8.2-1.2,12.4-1.1-3.9.1-7.6-1.8-11.2-.7,0-13.1,4.2-13.6,4.7-1.1,1.1-1.8,16.1-6.5,18.3,2.4-5.8,5.1-10.4,3.8-16.8l-23.9,10.9c4.4-6.2,30-12.1,6.2-12.1,3.3-3.6,11.6.7,14.4.3s7.4-5.2,9.4-4.7l-10-6.5c2.5-.7,12.3,6,13,5.9,4.4-.4,15.1-6.9,20.6-7.1l-9.1-9.4c0,0-.3-.5,1.2-.6Z" style="fill: #819631;"/>
        <path d="M126.1,299.9c.9-.2,3.7,11,2.4,11.2l-2.4-11.2Z" style="fill: #617622;"/>
      </g>
      <path d="M105.8,186.7c-.9.9-1.6.7-1.8,2.4-.3.2-.9.4-1.2.6,0-2.3,2.2-4.2,3.5-5.9l1.2.3c-1,.6-1.2,1.7-1.8,2.7Z" style="fill: #456a2a;"/>
      <path d="M110.5,180.2c-.7.9-2.5,4-2.9,2.4.8-.9,1.4-2.4,2.9-2.4Z" style="fill: #456a2a;"/>
      <path d="M98.7,189.6l-3.5-.3c1.1-1.1,3,.2,3.5.3Z" style="fill: #a0aa41;"/>
      <path d="M238.4,396c-.2.6-.4,1.2-.6,1.8-1.2-.7-.9-3.2.6-1.8Z" style="fill: #a0aa41;"/>
      <path d="M259.1,92.3c2.3,15.8-4.6,26.3-7.7,41.3-2.3,3.7-2.8,8.6-5.3,12.4-8.3-3.7,4-7-5.3-11.5l4.7-2.9-2.9-1.8,3.5-1.2c.7-3.7-1.1-1.7-2.4-3.5,7.7-1.3,3.2-6.1,3.5-6.5.5-.6,7.4-1.3,0-5.3,4.4-.8,2.9-2.9,3.5-6.2s1.5-3.8,1.2-5.6-2.3-2.4-2.9-3.2c-1.5-1.8-2-1-2.4-1.5s1.2-1.3,1.2-2.7c0-2.4.1-6.3-2.4-7.7,6.1-6.8,11.6,0,13.6,5.9Z" style="fill: #f9b7ca;"/>
      <path d="M259.1,92.3c-2-5.9-7.5-12.7-13.6-5.9-2.3-1.3-3.9-.1-5.9,0s-2.1,1.4-2.4.9l.6-3.2c3.2-1.4,3.7-2.8,4.1-6.2-2-2.6-4.5-3.1-7.7-2.7,8.4-4.1,8.6,5.5,9.1,5.9s9,.6,11.8,2.4,3.3,5.6,3.8,8.8Z" style="fill: #f8a4ae;"/>
      <path d="M237.8,84.1c-.9.4-2.5.7-3.5.6-1-2.5-5.7-3.1-1.2-8.8,1.3-.3,1.1-.6,1.2-.6,3.2-.4,5.7,0,7.7,2.7-.4,3.4-.9,4.8-4.1,6.2Z" style="fill: #e97499;"/>
      <path d="M285.6,95.9c-1.8,2.4-3.6,5-2.9,7.7-2.9,1.9-6.2,4.3-8.8,6.5,1-4.7,4.2-8.6,7.1-12.4l4.7-1.8Z" style="fill: #9ba678;"/>
      <path d="M233.1,75.8c-4.5,5.7.1,6.3,1.2,8.8s0,1.9.6,2.7l-.9,1.5c-.3-.2-.4-.6-.9-.6,1.3-4.3-5.5-5.5-2.4-10.6.1,0,.4-1.3,2.4-1.8Z" style="fill: #e0b09e;"/>
      <path d="M413,313.4c-.6,0-1.4-.8-2.4.3l2.4,3.2c-7.4-2.9-15-5.5-21.5-10-2.9.9,1.1,11.4.6,13.6-.6-.3-2.6-4.2-2.7-4.4-.4-1.6,0-8.8-1.2-10.6s-12.5-5.3-14.4-6.2c-1,9.8-.5,19.3,3.5,28.3l-5-9.7v-19.5c-.4-1.1-12-4.8-13.9-5.6s0-1.5-.6-1.8-1.1,1.2-1.2,1.2c-8.4-3.7-16.5-8.6-25.1-11.8,0-2.5-.5-3.5,2.4-3.5s3.8,1.8,5.3,2.4,13.7,6.7,14.4,6.5,4-4.8,5.9-5.9c10.4-6.4,26.3-12.8,36.6-11.8s1,.8,1.5.9c-15,1.7-31.7,5.4-42.5,17.1l15.6,6.8c8.5-3.8,16.2-8.2,25.9-6.5-7.9,2.1-17,2-23.3,8,6.9,3.4,8.7,7.1,16.2,4.4s6.2-3.5,7.7-3.5,4.9,1.2,7.1.6c-2.4,2-6.4.9-9.4,1.8s-6.8,3.1-6.8,3.8l19.2,10.9c1.1-.5,5.1-.5,5.6,1.2Z" style="fill: #819631;"/>
      <g>
        <path d="M379.9,72.9c0,.7-1.2,1.3-1.2,1.5.2.4,4.8,3.8,4.7,6.8,0-.2-2.4-2.5-2.9-2.1-.7,8.2-5.5,15-10,21.5-5.3-1.7-26.2-8.6-30.4-8.3s-8,3.2-11.8,3.5c-19.9,2-27.5-4.1-45.7,7.7-.7-2.7,1.1-5.3,2.9-7.7,5-6.4,13.2-11.8,20.3-15.3-.5,1.8-2.5,3.2-3.8,4.7s-1.4.5-1.8.9c2.1,1.2,1.6-.8,1.8-.9,6.8-1.9,12.1-5.7,18.6-7.7s11.1-1.1,15.9-2.9l-5.3.6c-.9-1.8,2.1-1.6,2.7-1.8,4.3-1.3,8.9-1.7,13.3-2.4-.8,2.3-7.9,2.5-7.1,5.3l13.6-5.9-3.5,3.5,26.5-13.6,3.2,12.4Z" style="fill: #84a945;"/>
        <path d="M363.1,68.7l-5.3,8.8c-1.4-3.2,3.2-6.5,5.3-8.8Z" style="fill: #b1c045;"/>
        <path d="M302.1,85.3c-.1,0,.3,2.1-1.8.9.4-.4,1.5-.5,1.8-.9Z" style="fill: #a8ab94;"/>
      </g>
      <path d="M408.2,345.3c-1.8,0-5.8,1.2-6.5,2.9-2.8-.6-6-.5-8.8-1.8s-2.5-.8-2.1-1.8c4.3,1,9.5-1.6,13.3-1.8s3,0,4.4,0c1.2.8,1.1,1.9-.3,2.4Z" style="fill: #abaca2;"/>
      <path d="M269.7,170.2c3.1,2.5-4.2,6-4.1,9.1s3.7,3.1,4.1,3.8c-9.1,9.8-19,19.1-25.9,30.7s-8.4,13-7.1,20.6c-2.2-2.8-1.9-9.1-2.4-13-.7-5.6-1.5-10.2-1.8-15.9s0-2.4,0-3.5c3.2-3.7,1.4-12.1,5.3-14.4-1.4,6.3-4.2,13.1-2.9,19.5.8-4,1.5-8.1,2.4-12.1,1.3,1.4,3.7-.7,4.1-1.5,2-3.3,4.6-15.9,7.1-20.9s1.1-1.5,1.8-2.4.6.5,2.4-.9.7-4.3,5-3.8-.3,6.9,0,7.1c3.3,2,4.1-5.9,7.4-3.8-4.2,8,1,4.6,4.7,1.5Z" style="fill: #dc4771;"/>
      <path d="M232.5,133.6c-.4,3.3-.4,6.2-.6,9.4s-.4,7.1-.6,10.6c-.3,7.5-.5,14.9-.6,22.4-2.3,1.6-.9,6.6-1.2,9.1-1.1,10.1-1.2,17.9,0,29.2,1,9.4,2.2,18.8,6.5,27.4-3.4-1.4-1.1.6-4.7,1.5-2.4-6.9-3.6-14-4.7-21.2s-1.6-6.7-1.8-10.3l1.2-70.5c5.1.2,2.9-6,6.5-7.7Z" style="fill: #f5516c;"/>
      <path d="M230.8,176.1c0,5.8-.1,11.6,0,17.4l1.8,12.1c.3,5.7,1.1,10.4,1.8,15.9-2.6-.4-1.7-6.9-2.4-8l-2.4.9c-1.2-11.3-1.1-19.1,0-29.2s-1.1-7.5,1.2-9.1Z" style="fill: #f5516c;"/>
      <path d="M226.6,222c1.1,7.2,2.3,14.3,4.7,21.2-.5.1-5,.1-5.3,0l.6-21.2Z" style="fill: #f8758b;"/>
      <path d="M104,189c.2-1.7.9-1.4,1.8-2.4-.8,1.4,0,1.1-1.8,2.4Z" style="fill: #a0aa41;"/>
      <path d="M241.4,157.8c-1.4,3.3-2.3,18.7-2.9,23.9,0,.5-.6,4.7,1.2,2.1-.7,3.9-1.5,7.4-2.4,11.2-.9,4-1.6,8.1-2.4,12.1-1.2-6.4,1.5-13.2,2.9-19.5-3.9,2.4-2.1,10.8-5.3,14.4-.4-9.9-1.1-24.3.6-33.9s2-2.2,2.4-3.2.8-1.9-.6-2.9c2.8.8.5-3.4,1.8-5.3,1.8,1.1,2.4,1.5,4.7,1.2Z" style="fill: #e97499;"/>
      <path d="M234.3,123.6c-1,.1-.6,1.6-.6,2.4s0,1.2,0,1.8c-1.3,1.6-1,4.1-1.2,5.9-3.5,1.7-1.4,7.8-6.5,7.7v-3.5c.3-1.5-.1-4.2,0-5.6.3-2.6,3.7-4.6-.6-6.5,4.2-3.1.5-7-.6-10.6.6-1.1,10.2,8,8.3-2.9,1.1-1.2,1.3,1,1.5.9s.9-1.6,1.8-1.8c.7,4.4-2,7.7-2.1,12.4Z" style="fill: #f8758b;"/>
      <path d="M237.8,84.1l-.6,3.2c.2.5,1.1-.8,2.4-.9-2.6,3.1-3.1,3.8-.6,7.1-3.2,2.3-3,3.5,1.2,2.9,0,.5-1.2,1.9-1.2,2.1.1.6,1.8-.2,1.8.9-1.1.5-1.7,1.8-1.8,2.9,0,0-.7,0-.6-.6.8-2.3-.2-4.2-2.1-2.4s-1.7,6.8-3.5,5.9c3.5-9.2-5.7-1.2-6.8-5.9.1-.1-.3-.4.6-1.2s3.8-2.1,4.1-2.4c.5,1.1,4.2,4.7,5.3,2.7v-3.5c-4,3-2.1-.2-2.9-1.2s-.9.6-1.2.3c-.4-.5.8-3-2.4-1.8,1.9-1.7,2.9-1.9,3.5-4.1.5,0,.6.3.9.6l.9-1.5c-.5-.8-.4-2.2-.6-2.7,1,0,2.7-.2,3.5-.6Z" style="fill: #f29f7a;"/>
      <path d="M238.4,101.8c-.2.5-1.8,2.1-2.4,2.9s-4.4,5.9-4.7,6.2c-1,.9-1.5-.7-2.1-.3-1.3,1-1.8,3.4-2.4,3.5-2.3.4-.1-2.5.3-3.5s1.6-.5,1.2-1.5-2.6-1.9-3.5-2.7c.3-1.9.5-3.6.6-5.6s-1.2-1-1.2-1.2c0-.6,1.7-.2,1.8-.3,1.1,4.7,10.3-3.3,6.8,5.9,1.8.9,3.1-5.4,3.5-5.9,1.8-1.9,2.9,0,2.1,2.4Z" style="fill: #f8758b;"/>
      <path d="M233.7,154.8c-.4,2.1,0,4.3,0,6.5s-3.6,2.2,1.8,3.5c-.4,1-2,1.4-2.4,3.2-1.7,9.6-1,24-.6,33.9s0,2.4,0,3.5l-1.8-12.1c-.1-5.8,0-11.6,0-17.4,0-7.5.3-14.9.6-22.4,1,.6,1,1,2.4,1.2Z" style="fill: #f38b90;"/>
      <path d="M249,98.2c.7.8,2.7,1.8,2.9,3.2s-.8,3.7-1.2,5.6c-2.5,2.1-5.3,1.9-7.7-.3s.2-1.9,0-2.1c-.9-.7-1.3-.5-2.4-1.2,1.8.2,2.4-2.1,2.4-3.5,1.7-.5,3.4-2.5,5.9-1.8Z" style="fill: #f5516c;"/>
      <path d="M240.2,179c-.2,1.5-.3,3.2-.6,4.7-1.7,2.7-1.2-1.6-1.2-2.1.6-5.1,1.6-20.6,2.9-23.9s1.2-1.7,1.8-1.8c1.3,4.3-2.1,17.7-2.9,23Z" style="fill: #f9b7ca;"/>
      <path d="M229.6,92.3c3.1-1.3,1.9,1.2,2.4,1.8-1.2,0-1.1,1.7-1.2,1.8-.3.3-3.2,1.6-4.1,2.4.1-3.3-.7-.2-2.9-.6,1.3-2,1.2-1.2,1.8-1.8,3.9-3.9-1.1-1-.6-3.2,1.4-5.8,2.9,1.4,3.2,1.5,1.1.2.9-1.3,1.5-1.8Z" style="fill: #f8a4ae;"/>
      <path d="M225.5,95.9c-.6.6-.5-.2-1.8,1.8s-.9,1-1.2,1.8c-1.1-.3-1.3-1.5-1.8-2.4s-1.3-2-1.2-3.2l3.2-2.1c1.9,1.5-.7.6-.3,2.7s2.8-.5,2.9,1.5Z" style="fill: #e0b09e;"/>
      <path d="M236.7,156.6c-1.3,1.9,1,6.1-1.8,5.3-.2-.1-1.2.3-1.2-.6,0-2.2-.4-4.4,0-6.5,4.1.6,1.8,1.1,2.9,1.8Z" style="fill: #f693ab;"/>
      <path d="M239,102.4c.6.4,1.1.8,1.8,1.2,1.1.6,1.5.4,2.4,1.2-2.6,1.2-4.6,1.1-7.1,0,.5-.8,2.2-2.4,2.4-2.9-.1.7.5.5.6.6Z" style="fill: #f9b7ca;"/>
      <g>
        <path d="M226.6,98.2c-.9.8-.5,1-.6,1.2s-1.7-.3-1.8.3,1.2,1,1.2,1.2c-.1,2-.3,3.7-.6,5.6s-1.8,2.4-1.8,2.7l4.1,1.5c-.4,1-2.6,3.9-.3,3.5s1.1-2.5,2.4-3.5,1.1,1.2,2.1.3,4.2-5.5,4.7-6.2c2.5,1.1,4.4,1.2,7.1,0,.2.1-.2,1.9,0,2.1,2.4,2.1,5.2,2.3,7.7.3-.6,3.3.9,5.4-3.5,6.2,7.4,4,.5,4.7,0,5.3s4.2,5.2-3.5,6.5c1.2,1.9,3-.1,2.4,3.5l-3.5,1.2,2.9,1.8-4.7,2.9c9.3,4.5-3,7.8,5.3,11.5-1.1,1.7.2,3.3-3.5,2.9l-.3-3.5c-.4.8-.4,1.4-1.5,1.8s-.8-1.6-2.9,1.2-2.2,1.4-.6,3.5,4.4-1,5.9,4.1c-.5,0-1.7,1.5-1.8,1.8-2.3.3-2.9,0-4.7-1.2s1.1-1.1-2.9-1.8-1.3-.6-2.4-1.2c.1-3.5.4-7.1.6-10.6.4-.7,2.9-4.7,2.9-5,.2-2.5-1.2-.5-1.2-1.2,0-3,0-6.1,0-9.1s0-1.2,0-1.8c1-.1.6-1.6.6-2.4,0-4.6,2.7-8,2.1-12.4-.9.2-1.7,1.7-1.8,1.8-.2,0-.4-2-1.5-.9,1.9,10.9-7.7,1.8-8.3,2.9,1.1,3.6,4.8,7.5.6,10.6,4.3,1.9.8,3.9.6,6.5s.3,4.1,0,5.6-1.5,9.3-1.8,9.7c-1.1,1.4-2.5.5-2.9,1.2s2.2,10.3,1.2,12.4c-5.7,1.4-4.3,0-5.3-4.4s-1.6-3.7-1.8-5,4.1-2.7-1.8-3.5c2.6-1.5-.7-7.4-1.5-7.4s-.3,2.1-2.4,1.8-3.5-7.8-2.1-9.7c2.3-2,3.8,3.5,4.1.3,2.4-.9.3-2.2,0-3.5-.4-2-1.7-3-.6-4.7l.6-.6c4.2,0,4.8,3.3,2.1,5.9l4.4-.9c-3-1.7-1.1-4.5-1.2-4.7-.4-1.3-5,.1-5.9-4.7s5.5-7.7,2.1-7.4-1.7,7.4-4.4-1.5,1.4-.9,1.2-1.8-2.1-1.1-2.9-2.9,1.9.1-1.2-2.9c3.5-3.6-.5,3.5,4.4-1.5.6,1.6,1.9,1.3,3.2,2.4s2.2,2.9,2.9,3.5,2.8,3.1,3.2,2.9l2.7-2.7c-1.2-.1-2.5-.9-3.5-.9,4.4-2.6,2.6-5.2,3.5-7.7s.8-1.2,1.2-1.8c2.2.4,3.1-2.8,2.9.6Z" style="fill: #f2b349;"/>
        <path d="M211.9,133c-1.1-1.4-2.1-2.6,0-3.5.3,1.3,2.4,2.7,0,3.5Z" style="fill: #f693ab;"/>
        <path d="M231.9,143c.1-3.3.2-6.2.6-9.4s-.2-4.3,1.2-5.9c0,3,0,6.1,0,9.1s1.4-1.3,1.2,1.2-2.5,4.3-2.9,5Z" style="fill: #f693ab;"/>
        <path d="M227.2,110.6l-4.1-1.5c0-.3,1.4-.4,1.8-2.7.9.8,3.1,1.7,3.5,2.7s-.8.6-1.2,1.5Z" style="fill: #f2b349;"/>
        <polygon points="215.7 139.5 218.7 146 213.7 141.6 215.7 139.5" style="fill: #e0b09e;"/>
        <path d="M239.3,124.2c4,1.2-1.2,4.8-3.5,4.7l3.5-4.7Z" style="fill: #f693ab;"/>
        <path d="M236.4,143.6c2.5-.7.2,5.4-1.8,5.3-1.2-1,1-5.1,1.8-5.3Z" style="fill: #f8a4ae;"/>
        <path d="M216.6,107.7c1.1.4,1.9-.6,2.4-.6,1,0,2.4.8,3.5.9l-2.7,2.7c-.4.1-2.8-2.5-3.2-2.9Z" style="fill: #f5b9b2;"/>
        <path d="M241.7,115.9c1.2-.8,2.6,2.7,4.1,0,1.1,1.6-.8,2.5-1.8,3.5l-2.1-1.5c-.7-.4-.9-1.7-.3-2.1Z" style="fill: #f8a4ae;"/>
        <path d="M214,136.6c2.4.4-1.4,3.4-2.4,3.5l-.3-1.5c.2-.5,2.5-2.1,2.7-2.1Z" style="fill: #e0b09e;"/>
        <path d="M237.3,151.9c-1.6-2.1-.2-2.5.6-3.5.8,1.5,2.1,3-.6,3.5Z" style="fill: #f693ab;"/>
        <path d="M222.2,114.1c2.9-.7,1.1,2.3,2.4,4.1l-2.4-4.1Z" style="fill: #e0b09e;"/>
        <path d="M242.6,148.9c-1.2-.1-1.9-.4-1.8-1.8,1-.4,1.1-.9,1.5-1.8l.3,3.5Z" style="fill: #f0c229;"/>
        <path d="M218.7,131.8l.9.3c-1,3.4-3.3,2.1-.9-.3Z" style="fill: #f8a4ae;"/>
        <path d="M239.9,130.1c.9.5.3,2.3-1.2,1.8-.5-.4,1.1-1.8,1.2-1.8Z" style="fill: #f5b9b2;"/>
        <path d="M238.7,111.8c2-.9,1.6,1.8.6,1.8s-1-1.6-.6-1.8Z" style="fill: #f9b7ca;"/>
        <path d="M233.7,125.9c0-.7-.4-2.2.6-2.4,0,.7.4,2.2-.6,2.4Z" style="fill: #f8a4ae;"/>
        <path d="M224.6,119.5h.6c1.2,0,1.2.7,0,.6l-.6-.6Z" style="fill: #f9b7ca;"/>
      </g>
      <path d="M219,169.6c-1.2-1.4,1.7-2.5,1.8-.9s-1.6,1.1-1.8.9Z" style="fill: #f2b349;"/>
      <path d="M227.8,87.6c-.7.7-1.4,1.2-1.8,0,.7-.1.9-.3,1.8,0Z" style="fill: #f38b90;"/>
      <path d="M272.6,198.5c-1.2,2.1,1,6.5.6,8s-4.7,2.3-5.3,3.5-.8,8.8-1.2,10.6-1.1.9-1.2,1.2c-.5,2,2.2,3.2-2.7,6.2s-1.9-1.5-3.2,1.8c-9.4-2.7-15.4-5-20,5.9,1.6-11.6,23.2-30.9,33-37.1Z" style="fill: #dc4771;"/>
      <path d="M254.9,206.1c-2.4,2.3-4.3,5.2-6.5,7.7s-5.7,7.5-6.2,7.7c-3.9,1.1,1.6-6.4,2.1-7.1,2.1-2.6,6.8-6.3,9.4-8.8l1.2.6Z" style="fill: #dc4771;"/>
      <path d="M292.7,176.6c-.5.6-2.6,2.8-2.4,3.5-3.1,1.6-7.8,4.1-10.6,5.9v-1.8c4.1-2.7,8.2-6.1,13-7.7Z" style="fill: #c18877;"/>
      <g>
        <path d="M331.6,280.4c8.6,3.2,16.7,8.1,25.1,11.8s1.1-1.2,1.2-1.2c.6.3,0,1.5.6,1.8,1.8.8,13.4,4.5,13.9,5.6v19.5l5,9.7c-4-9-4.5-18.5-3.5-28.3,1.9.9,14,5.5,14.4,6.2,1.1,1.8.8,9,1.2,10.6s2.1,4.2,2.7,4.4c.5-2.1-3.5-12.6-.6-13.6,6.6,4.5,14.1,7.1,21.5,10,3.6,1.4,6.4,3.5,10.6,3.8-1-1-18,3.5-15,5l13.3-2.1-14.7,7.1,9.1-2.7,4.4,1.8c-2.5.6-5.7,4.4-8,5.9s-7.6,2.9-6.5,3.5l5.6-.9-7.7,4.4c-3.7.2-8.9,2.8-13.3,1.8-.4,1,1.4,1.5,2.1,1.8-3.8,1.9-15.9-3-8.5,2.9-5.9-2.1-12.7.6-17.7.6s-10.8-1.4-16.5-2.4-1.6-1.8-1.8-1.8c-1.6.2-1.5,1.8-1.8,1.8-1.7-.4-8.9-3.6-9.4-3.5l-.9.9,6.8,5.6-33.9-18.9c-.4-1.7-3.2-8.3-4.1-10,1.3-2.8-5.1-10.4-4.7-12.7s3.1-3,3.5-4.7c1.2-4.2,0-7.6,0-11.5s-1.3-3.7-1.2-4.4c.1-1.4,9.3-16.7,10.3-16.8s11.9,5.5,12.1,6.2c.4,1.5-5.9,14.3-5,17.4l6.5-17.1c1.5,1.2,3.3,1.7,5,2.4Z" style="fill: url(#linear-gradient9);"/>
        <path d="M318.9,299.3l-1.8,14.7c-1.2-1.3.6-15,1.8-14.7Z" style="fill: #617622;"/>
      </g>
      <path d="M264.4,140.7c-.5.8-3.5,5.3-3.5,5.6-.1,1.3,1.1.8,1.2.9l-11.8,23c-.6.8-1.1,1-1.8,2.4h-1.2c-.3-1.2-2.4,0-2.9-.9s5.6-19.5,7.1-21.8c2.5-4.1,8-8.4,13-9.1Z" style="fill: #f693ab;"/>
      <path d="M280.3,161.3c.4,3.2-4.6,2.3-.9,5.3l5.3-4.7,1.5,2.9c-5.9,5.6-11,12.3-16.5,18.3-.4-.7-4.1-3.6-4.1-3.8,0-3.2,7.2-6.6,4.1-9.1,2.9-2.5,6-7.2,9.1-9.4s1.4.6,1.5.6Z" style="fill: #e97499;"/>
      <path d="M247.3,172.5h1.2c-2.5,5-5.1,17.6-7.1,20.9s-2.9,2.9-4.1,1.5c.9-3.8,1.6-7.4,2.4-11.2s.3-3.2.6-4.7c3.6-2.6.9-6.5,7.1-6.5Z" style="fill: #dc4771;"/>
      <g>
        <path d="M370.5,100.6c1.7.5,3.3,1.8,5,2.4,3.7,1.3,10.9-.8,12.1,5.6,1.7,8.6-9.6,10.5-8.3,17.1s10.2,4.5,8.3,15.9c-.8,4.6-6.7,9-8.3,13s-.2,5.4-1.2,7.7c-3.5,8.5-15.4,2-21.5,1.5-7-.6-11.1,1.5-16.8,1.8-19.2.8-33.3-4.8-47.2,11.2-4.7,1.5-8.9,5-13,7.7-9.7,6.5-17.5,13-25.9,21.2-2.6,2.5-7.4,6.2-9.4,8.8l-.6-.6c7-11.5,16.8-20.8,25.9-30.7,5.6-6,10.6-12.7,16.5-18.3,1.9-1.8,8.8-8.7,9.7-9.4,4-3.3,10.7-4.8,14.7-8.3-3.6.3-6.3,2.9-9.4,4.1s-1-.9-1.8-.6-3.7,3.5-4.1,3.5-1.1-1.9-1.8-1.8-11.5,7.6-13.3,8.8-.5-1.3-1.5-.6c-3.1,2.2-6.2,7-9.1,9.4s-8.9,6.5-4.7-1.5c-3.3-2.1-4,5.9-7.4,3.8s2.2-6.8,0-7.1c-4.4-.5-3.5,2.6-5,3.8s-2.3.8-2.4.9l11.8-23c0,0,1-.2,1.2.3s-1.5,1.8-.9,2.1c1.4.6,10.7-13.9,12.1-15.6,5-6,11.3-11.2,15.9-17.7-9.2,4.9-20.2,15.7-25.9,24.5-4.9.8-10.4,5-13,9.1s-7.7,20.8-7.1,21.8,2.7-.4,2.9.9c-6.2,0-3.5,3.8-7.1,6.5.8-5.3,4.2-18.7,2.9-23s-5.1-3.1-5.9-4.1c2.6-.6,1.3-2.1.6-3.5,2.2-2.7,2.5-1,2.9-1.2-.1,1.4.5,1.7,1.8,1.8,3.7.3,2.4-1.2,3.5-2.9,2.5-3.8,3-8.7,5.3-12.4s18.1-20,22.4-23.6,5.9-4.6,8.8-6.5c18.2-11.8,25.8-5.7,45.7-7.7,3.7-.4,8.8-3.3,11.8-3.5,4.2-.3,25,6.6,30.4,8.3Z" style="fill: #f9b7ca;"/>
        <path d="M279.7,184.3v1.8c-8.4,5.3-17.7,13-24.8,20l-1.2-.6c8.4-8.2,16.2-14.7,25.9-21.2Z" style="fill: #e97499;"/>
        <path d="M334.2,105.9c.5,0,1.3-.2,1.5.3-14.2,6.1-29.6,10.1-43,18.3,7.8-8.4,15.8-15.3,27.4-18l-.9,2.1c.6,1.8,12.6-2.7,15-2.7Z" style="fill: #fad1dc;"/>
        <path d="M262,147.2c0,0-1.3.5-1.2-.9s3-4.8,3.5-5.6c5.7-8.7,16.8-19.6,25.9-24.5-4.6,6.5-10.9,11.6-15.9,17.7s-10.7,16.2-12.1,15.6.9-2,.9-2.1c-.2-.5-1.1-.2-1.2-.3Z" style="fill: #f9b7ca;"/>
        <path d="M286.2,164.9l-1.5-2.9-5.3,4.7c-3.7-3,1.3-2.1.9-5.3,1.7-1.2,12.5-8.7,13.3-8.8s1.6,1.8,1.8,1.8c.5,0,3.8-3.4,4.1-3.5.7-.3,1,.9,1.8.6,3.1-1.2,5.8-3.9,9.4-4.1-4,3.4-10.7,5-14.7,8.3s-7.9,7.7-9.7,9.4Z" style="fill: #f693ab;"/>
        <path d="M282.9,147.2c.4,0,1.3-.1,1.5.3l-16.2,16.8c-1.9-.5,3-12.4,4.7-12.4s1.5,1.8,1.8,1.8c1.3,0,6-6,8.3-6.5Z" style="fill: #f693ab;"/>
      </g>
      <path d="M245.5,86.4c2.5,1.4,2.4,5.3,2.4,7.7-2,1.7-4.6,3-7.1,1.8s-1.4-1.9-1.8-2.4c-2.5-3.3-2-4,.6-7.1,2-.1,3.6-1.3,5.9,0Z" style="fill: #f5516c;"/>
      <path d="M249,98.2c-2.5-.8-4.2,1.3-5.9,1.8s-.9-1.2-2.4-.6c0-1-1.6-.3-1.8-.9s1.2-1.6,1.2-2.1c.4,0,.7,0,.6-.6,2.5,1.2,5.1,0,7.1-1.8,0,1.4-1.6,2.1-1.2,2.7s.8-.3,2.4,1.5Z" style="fill: #e0b09e;"/>
      <path d="M234.9,161.9c1.3,1.1,1.1,1.6.6,2.9-5.4-1.4-1.8-3.3-1.8-3.5,0,.9,1,.5,1.2.6Z" style="fill: #f0c229;"/>
      <path d="M230.8,95.9c0,0,0-1.8,1.2-1.8.3.3.7-.9,1.2-.3.8,1-1.1,4.1,2.9,1.2v3.5c-1.1,2.1-4.8-1.6-5.3-2.7Z" style="fill: #f4a64f;"/>
      <path d="M243.1,100c0,1.5-.6,3.7-2.4,3.5-.7-.4-1.2-.7-1.8-1.2,0-1.2.6-2.5,1.8-2.9s2.2.6,2.4.6Z" style="fill: #f0c229;"/>
      <path d="M239,93.5c.4.5,1.6,2.3,1.8,2.4,0,.5-.1.5-.6.6-4.2.5-4.3-.7-1.2-2.9Z" style="fill: #f0c229;"/>
    </g>
  </g>
</svg>